<svg xmlns="http://www.w3.org/2000/svg" xmlns:xlink="http://www.w3.org/1999/xlink" xmlns:lucid="lucid" width="842" height="703.64"><g transform="translate(-559 -1199)" lucid:page-tab-id="3j10jvqQmy4k"><path d="M560 1206a6 6 0 0 1 6-6h228a6 6 0 0 1 6 6v68a6 6 0 0 1-6 6H566a6 6 0 0 1-6-6z" stroke="#6db1ff" stroke-width="2" fill="#edf5ff"/><use xlink:href="#a" transform="matrix(1,0,0,1,565,1205) translate(32.573784722222214 45.45138888888889)"/><path d="M860 1206a6 6 0 0 1 6-6h228a6 6 0 0 1 6 6v68a6 6 0 0 1-6 6H866a6 6 0 0 1-6-6z" stroke="#6db1ff" stroke-width="2" fill="#edf5ff"/><use xlink:href="#b" transform="matrix(1,0,0,1,865,1205) translate(36.1968315972222 45.45138888888889)"/><path d="M1160 1206a6 6 0 0 1 6-6h228a6 6 0 0 1 6 6v73.3a6 6 0 0 1-6 6h-228a6 6 0 0 1-6-6z" stroke="#6db1ff" stroke-width="2" fill="#edf5ff"/><use xlink:href="#c" transform="matrix(1,0,0,1,1165,1205) translate(32.61176215277776 32.51388888888889)"/><use xlink:href="#d" transform="matrix(1,0,0,1,1165,1205) translate(14.412977430555557 70.15711805555557)"/><path d="M741.73 1596.53a3.26 3.26 0 0 0-2.73-5.03H621a3.26 3.26 0 0 0-2.73 5.03l58.46 89.94a3.9 3.9 0 0 0 6.54 0z" stroke="#e81313" stroke-width="2" fill="#fe7070"/><use xlink:href="#e" transform="matrix(1,-2.4492935982947064e-16,2.4492935982947064e-16,1,619.9999999999999,1596.5000499999996) translate(14.303927951388886 23.680555555555557)"/><path d="M730 1849c0 27.6-22.4 50-50 50s-50-22.4-50-50 22.4-50 50-50 50 22.4 50 50z" stroke="#d09b1f" stroke-width="2" fill="#ffbc1c"/><use xlink:href="#f" transform="matrix(1,0,0,1,635,1804.0000499999999) translate(16.87391493055555 55.45138888888889)"/><path d="M1030 1849c0 27.6-22.4 50-50 50s-50-22.4-50-50 22.4-50 50-50 50 22.4 50 50z" stroke="#d09b1f" stroke-width="2" fill="#ffbc1c"/><use xlink:href="#g" transform="matrix(1,0,0,1,935,1804.0000499999999) translate(21.60590277777777 55.45138888888889)"/><path d="M1330 1851.64c0 27.62-22.4 50-50 50s-50-22.38-50-50c0-27.6 22.4-50 50-50s50 22.4 50 50z" stroke="#d09b1f" stroke-width="2" fill="#ffbc1c"/><use xlink:href="#h" transform="matrix(1,0,0,1,1235,1806.6432791666666) translate(23.63693576388889 55.45138888888889)"/><path d="M660 1497c0 27.62-22.4 50-50 50s-50-22.38-50-50c0-27.6 22.4-50 50-50s50 22.4 50 50z" stroke="#1071e5" stroke-width="2" fill="#6db1ff"/><use xlink:href="#i" transform="matrix(1,0,0,1,565,1452.0006499999984) translate(0.9809027777777786 54.61805555555556)"/><path d="M800 1497c0 27.62-22.4 50-50 50s-50-22.38-50-50c0-27.6 22.4-50 50-50s50 22.4 50 50z" stroke="#54c45e" stroke-width="2" fill="#c3f7c8"/><use xlink:href="#j" transform="matrix(1,0,0,1,705,1452.0006499999984) translate(21.916232638888886 54.61805555555556)"/><path d="M610 1549v14.25a6 6 0 0 0 6 6h21.75a2.75 2.75 0 0 1 2.75 2.75" stroke="#5e5e5e" stroke-width="2" fill="none"/><path d="M610 1548l.98-.03v1.06H609v-1.08z" stroke="#5e5e5e" stroke-width=".05" fill="#5e5e5e"/><path d="M640.5 1587.26l-4.64-14.26h9.27z" stroke="#5e5e5e" stroke-width="2" fill="#5e5e5e"/><path d="M750 1549v14.25a6 6 0 0 1-6 6h-21.75a2.75 2.75 0 0 0-2.75 2.75" stroke="#5e5e5e" stroke-width="2" fill="none"/><path d="M750 1548l.98-.03v1.06H749v-1.08z" stroke="#5e5e5e" stroke-width=".05" fill="#5e5e5e"/><path d="M719.5 1587.26l-4.63-14.26h9.27z" stroke="#5e5e5e" stroke-width="2" fill="#5e5e5e"/><path d="M1041.73 1596.53a3.26 3.26 0 0 0-2.73-5.03H921a3.26 3.26 0 0 0-2.73 5.03l58.46 89.94a3.9 3.9 0 0 0 6.54 0z" stroke="#e81313" stroke-width="2" fill="#fe7070"/><use xlink:href="#e" transform="matrix(1,-2.4492935982947064e-16,2.4492935982947064e-16,1,919.9999999999999,1596.50005) translate(14.303927951388886 23.680555555555557)"/><path d="M960 1497c0 27.62-22.4 50-50 50s-50-22.38-50-50c0-27.6 22.4-50 50-50s50 22.4 50 50z" stroke="#1071e5" stroke-width="2" fill="#6db1ff"/><use xlink:href="#i" transform="matrix(1,0,0,1,865,1452.0006500000284) translate(0.9809027777777786 54.61805555555556)"/><path d="M1100 1497c0 27.62-22.4 50-50 50s-50-22.38-50-50c0-27.6 22.4-50 50-50s50 22.4 50 50z" stroke="#54c45e" stroke-width="2" fill="#c3f7c8"/><use xlink:href="#j" transform="matrix(1,0,0,1,1005,1452.0006500000284) translate(21.916232638888886 54.61805555555556)"/><path d="M910 1549v14.25a6 6 0 0 0 6 6h21.75a2.75 2.75 0 0 1 2.75 2.75" stroke="#5e5e5e" stroke-width="2" fill="none"/><path d="M910 1548l.98-.03v1.06H909v-1.08z" stroke="#5e5e5e" stroke-width=".05" fill="#5e5e5e"/><path d="M940.5 1587.26l-4.64-14.26h9.27z" stroke="#5e5e5e" stroke-width="2" fill="#5e5e5e"/><path d="M1050 1549v14.25a6 6 0 0 1-6 6h-21.75a2.75 2.75 0 0 0-2.75 2.75" stroke="#5e5e5e" stroke-width="2" fill="none"/><path d="M1050 1548l.97-.03v1.06h-1.94v-1.08z" stroke="#5e5e5e" stroke-width=".05" fill="#5e5e5e"/><path d="M1019.5 1587.26l-4.63-14.26h9.27z" stroke="#5e5e5e" stroke-width="2" fill="#5e5e5e"/><path d="M1341.73 1599.17a3.26 3.26 0 0 0-2.73-5.03h-118a3.26 3.26 0 0 0-2.73 5.03l58.46 89.94a3.9 3.9 0 0 0 6.54 0z" stroke="#e81313" stroke-width="2" fill="#fe7070"/><use xlink:href="#e" transform="matrix(1,-2.4492935982947064e-16,2.4492935982947064e-16,1,1220,1599.1432791666668) translate(14.303927951388886 23.680555555555557)"/><path d="M1260 1499.64c0 27.62-22.4 50-50 50s-50-22.38-50-50c0-27.6 22.4-50 50-50s50 22.4 50 50z" stroke="#1071e5" stroke-width="2" fill="#6db1ff"/><use xlink:href="#i" transform="matrix(1,0,0,1,1165,1454.6438791666951) translate(0.9809027777777786 54.61805555555556)"/><path d="M1400 1499.64c0 27.62-22.4 50-50 50s-50-22.38-50-50c0-27.6 22.4-50 50-50s50 22.4 50 50z" stroke="#54c45e" stroke-width="2" fill="#c3f7c8"/><use xlink:href="#j" transform="matrix(1,0,0,1,1305,1454.6438791666951) translate(21.916232638888886 54.61805555555556)"/><path d="M1210 1551.64v14.25a6 6 0 0 0 6 6h21.75a2.75 2.75 0 0 1 2.75 2.74" stroke="#5e5e5e" stroke-width="2" fill="none"/><path d="M1210 1550.64l.97-.03v1.07h-1.94v-1.07z" stroke="#5e5e5e" stroke-width=".05" fill="#5e5e5e"/><path d="M1240.5 1589.9l-4.64-14.26h9.28z" stroke="#5e5e5e" stroke-width="2" fill="#5e5e5e"/><path d="M1350 1551.64v14.25a6 6 0 0 1-6 6h-21.75a2.75 2.75 0 0 0-2.75 2.74" stroke="#5e5e5e" stroke-width="2" fill="none"/><path d="M1350 1550.64l.97-.03v1.07h-1.94v-1.07z" stroke="#5e5e5e" stroke-width=".05" fill="#5e5e5e"/><path d="M1319.5 1589.9l-4.63-14.26h9.27z" stroke="#5e5e5e" stroke-width="2" fill="#5e5e5e"/><path d="M680 1690.25v89.25" stroke="#5e5e5e" stroke-width="2" fill="none"/><path d="M680.98 1690.27H679v-1.12l.98.1.97-.1z" stroke="#5e5e5e" stroke-width=".05" fill="#5e5e5e"/><path d="M680 1794.76l-4.63-14.26h9.26z" stroke="#5e5e5e" stroke-width="2" fill="#5e5e5e"/><path d="M980 1690.25v89.25" stroke="#5e5e5e" stroke-width="2" fill="none"/><path d="M980.98 1690.27H979v-1.12l.98.1.97-.1z" stroke="#5e5e5e" stroke-width=".05" fill="#5e5e5e"/><path d="M980 1794.76l-4.63-14.26h9.26z" stroke="#5e5e5e" stroke-width="2" fill="#5e5e5e"/><path d="M1280 1692.9v89.24" stroke="#5e5e5e" stroke-width="2" fill="none"/><path d="M1280.97 1692.92h-1.94v-1.13l.97.1.97-.1z" stroke="#5e5e5e" stroke-width=".05" fill="#5e5e5e"/><path d="M1280 1797.4l-4.63-14.26h9.27z" stroke="#5e5e5e" stroke-width="2" fill="#5e5e5e"/><path d="M730 1390c0 27.6-22.4 50-50 50s-50-22.4-50-50 22.4-50 50-50 50 22.4 50 50z" stroke="#e08fff" stroke-width="2" fill="#f4d9ff"/><use xlink:href="#k" transform="matrix(1,0,0,1,635,1345) translate(18.610026041666664 54.61805555555556)"/><path d="M1030 1390c0 27.6-22.4 50-50 50s-50-22.4-50-50 22.4-50 50-50 50 22.4 50 50z" stroke="#e08fff" stroke-width="2" fill="#f4d9ff"/><use xlink:href="#k" transform="matrix(1,0,0,1,935,1345.000000000031) translate(18.610026041666664 54.61805555555556)"/><path d="M1330 1399.14c0 27.62-22.4 50-50 50s-50-22.38-50-50c0-27.6 22.4-50 50-50s50 22.4 50 50z" stroke="#e08fff" stroke-width="2" fill="#f4d9ff"/><use xlink:href="#k" transform="matrix(1,0,0,1,1235,1354.1429041666677) translate(18.610026041666664 54.61805555555556)"/><path d="M680 1282v38.5" stroke="#5e5e5e" stroke-width="2" fill="none"/><path d="M680.98 1282.03H679V1281H681z" stroke="#5e5e5e" stroke-width=".05" fill="#5e5e5e"/><path d="M680 1335.76l-4.63-14.26h9.26z" stroke="#5e5e5e" stroke-width="2" fill="#5e5e5e"/><path d="M680 1442v130" stroke="#5e5e5e" stroke-width="2" fill="none"/><path d="M680 1441l.98-.03v1.06H679v-1.08z" stroke="#5e5e5e" stroke-width=".05" fill="#5e5e5e"/><path d="M680 1587.26l-4.63-14.26h9.26z" stroke="#5e5e5e" stroke-width="2" fill="#5e5e5e"/><path d="M980 1282v38.5" stroke="#5e5e5e" stroke-width="2" fill="none"/><path d="M980.98 1282.03H979V1281H981z" stroke="#5e5e5e" stroke-width=".05" fill="#5e5e5e"/><path d="M980 1335.76l-4.63-14.26h9.26z" stroke="#5e5e5e" stroke-width="2" fill="#5e5e5e"/><path d="M980 1442v130" stroke="#5e5e5e" stroke-width="2" fill="none"/><path d="M980 1441l.98-.03v1.06H979v-1.08z" stroke="#5e5e5e" stroke-width=".05" fill="#5e5e5e"/><path d="M980 1587.26l-4.63-14.26h9.26z" stroke="#5e5e5e" stroke-width="2" fill="#5e5e5e"/><path d="M1280 1287.3v42.34" stroke="#5e5e5e" stroke-width="2" fill="none"/><path d="M1280.97 1287.3h-1.94v-1h1.94z" stroke="#5e5e5e" stroke-width=".05" fill="#5e5e5e"/><path d="M1280 1344.9l-4.63-14.26h9.27z" stroke="#5e5e5e" stroke-width="2" fill="#5e5e5e"/><path d="M1280 1451.14v123.5" stroke="#5e5e5e" stroke-width="2" fill="none"/><path d="M1280 1450.14l.97-.03v1.07h-1.94v-1.08z" stroke="#5e5e5e" stroke-width=".05" fill="#5e5e5e"/><path d="M1280 1589.9l-4.63-14.26h9.27z" stroke="#5e5e5e" stroke-width="2" fill="#5e5e5e"/><defs><path d="M180 0v-1490h908v168H370v486h669v168H370v500h727V0H180" id="l"/><path d="M65 0l393-574-370-544h210c88 136 192 297 267 435 67-142 176-302 264-435h206L661-564 1053 0H844c-94-144-206-310-287-458C484-308 366-142 273 0H65" id="m"/><path d="M158 418v-1536h174v179h20c37-59 106-193 324-193 279 0 474 222 474 576 0 356-194 580-473 580-213 0-288-135-325-197h-14v591H158zm492-555c209 0 317-186 317-421 0-232-105-413-317-413-206 0-314 166-314 413 0 249 111 421 314 421" id="n"/><path d="M338-1490V0H158v-1490h180" id="o"/><path d="M613 24c-304 0-509-231-509-576 0-350 205-580 509-580 305 0 511 230 511 580 0 345-206 576-511 576zm0-161c226 0 329-195 329-415 0-222-103-419-329-419-223 0-326 196-326 419 0 220 103 415 326 415" id="p"/><path d="M158 0v-1118h174v172h12c41-113 157-188 290-188 26 0 70 2 91 3v181c-11-2-60-10-108-10-161 0-279 109-279 260V0H158" id="q"/><path d="M471 26C259 26 90-98 90-318c0-256 228-303 435-329 202-27 287-16 287-108 0-139-79-219-234-219-161 0-248 86-283 164l-173-57c86-203 278-265 451-265 150 0 419 46 419 395V0H815v-152h-12C765-73 660 26 471 26zm31-159c199 0 310-134 310-271v-155c-30 35-226 55-295 64-131 17-246 59-246 186 0 116 97 176 231 176" id="r"/><path d="M598-1118v154H368v674c0 100 37 144 132 144 23 0 62-6 92-12L629-6c-37 13-88 20-134 20-193 0-307-107-307-290v-688H20v-154h168v-266h180v266h230" id="s"/><path d="M158 0v-1118h180V0H158zm91-1301c-68 0-125-53-125-119s57-119 125-119c69 0 126 53 126 119s-57 119-126 119" id="t"/><path d="M338-670V0H158v-1118h173l1 207c72-158 192-221 342-221 226 0 378 139 378 422V0H872v-695c0-172-96-275-252-275-161 0-282 109-282 300" id="u"/><g id="a"><use transform="matrix(0.015190972222222224,0,0,0.015190972222222224,0,0)" xlink:href="#l"/><use transform="matrix(0.015190972222222224,0,0,0.015190972222222224,18.700086805555557,0)" xlink:href="#m"/><use transform="matrix(0.015190972222222224,0,0,0.015190972222222224,35.68359375,0)" xlink:href="#n"/><use transform="matrix(0.015190972222222224,0,0,0.015190972222222224,54.73307291666667,0)" xlink:href="#o"/><use transform="matrix(0.015190972222222224,0,0,0.015190972222222224,62.26779513888889,0)" xlink:href="#p"/><use transform="matrix(0.015190972222222224,0,0,0.015190972222222224,80.92230902777779,0)" xlink:href="#q"/><use transform="matrix(0.015190972222222224,0,0,0.015190972222222224,92.63454861111111,0)" xlink:href="#r"/><use transform="matrix(0.015190972222222224,0,0,0.015190972222222224,110.10416666666667,0)" xlink:href="#s"/><use transform="matrix(0.015190972222222224,0,0,0.015190972222222224,120.28211805555556,0)" xlink:href="#t"/><use transform="matrix(0.015190972222222224,0,0,0.015190972222222224,127.81684027777779,0)" xlink:href="#p"/><use transform="matrix(0.015190972222222224,0,0,0.015190972222222224,146.47135416666669,0)" xlink:href="#u"/></g><path d="M678-1118v154H420V0H240v-964H20v-154h220v-149c0-194 155-293 318-293 85 0 141 18 168 30l-50 154c-19-6-47-17-97-17-111 0-159 58-159 166v109h258" id="v"/><path d="M628 24c-324 0-524-230-524-574 0-343 198-582 503-582 237 0 487 146 487 559v75H286c9 234 145 362 343 362 132 0 231-58 273-172l174 48C1024-91 857 24 628 24zM287-650h624c-17-190-120-322-304-322-192 0-309 151-320 322" id="w"/><path d="M613 24c-304 0-509-231-509-576 0-350 205-580 509-580 216 0 392 114 453 309l-173 49c-33-115-133-197-280-197-223 0-326 196-326 419 0 220 103 415 326 415 150 0 252-85 285-206l172 49C1010-95 832 24 613 24" id="x"/><g id="b"><use transform="matrix(0.015190972222222224,0,0,0.015190972222222224,0,0)" xlink:href="#l"/><use transform="matrix(0.015190972222222224,0,0,0.015190972222222224,18.700086805555557,0)" xlink:href="#v"/><use transform="matrix(0.015190972222222224,0,0,0.015190972222222224,28.999565972222225,0)" xlink:href="#v"/><use transform="matrix(0.015190972222222224,0,0,0.015190972222222224,39.60286458333334,0)" xlink:href="#w"/><use transform="matrix(0.015190972222222224,0,0,0.015190972222222224,57.74088541666668,0)" xlink:href="#x"/><use transform="matrix(0.015190972222222224,0,0,0.015190972222222224,75.51432291666669,0)" xlink:href="#s"/><use transform="matrix(0.015190972222222224,0,0,0.015190972222222224,85.8441840277778,0)" xlink:href="#r"/><use transform="matrix(0.015190972222222224,0,0,0.015190972222222224,103.31380208333336,0)" xlink:href="#u"/><use transform="matrix(0.015190972222222224,0,0,0.015190972222222224,121.69487847222224,0)" xlink:href="#x"/><use transform="matrix(0.015190972222222224,0,0,0.015190972222222224,139.46831597222226,0)" xlink:href="#w"/></g><path d="M180 0v-1490h190c0 262 1 526-3 784 217-279 467-523 702-784h249L716-845 1319 0h-225L585-716 370-489V0H180" id="y"/><path d="M409 0L70-1118h191c89 329 165 560 243 925 75-353 154-601 240-925h192c85 325 161 564 235 922 77-354 157-598 244-922h191L1267 0h-179c-86-307-176-590-250-913C763-588 675-308 588 0H409" id="z"/><path d="M577 24c-279 0-473-224-473-580 0-354 195-576 474-576 218 0 287 134 324 193h14v-551h180V0H922v-173h-20C865-111 790 24 577 24zm27-161c203 0 314-172 314-421 0-247-108-413-314-413-212 0-317 181-317 413 0 235 108 421 317 421" id="A"/><path d="M611 442c-248 0-391-105-460-228l146-94c47 65 117 165 314 165 178 0 307-82 307-266v-224h-17C863-141 792-18 576-18c-268 0-472-195-472-546 0-346 197-568 476-568 216 0 288 133 326 193h17v-179h175V29c0 289-215 413-487 413zm-5-620c203 0 314-146 314-390 0-237-108-403-314-403-213 0-319 180-319 403 0 230 109 390 319 390" id="B"/><g id="c"><use transform="matrix(0.015190972222222224,0,0,0.015190972222222224,0,0)" xlink:href="#y"/><use transform="matrix(0.015190972222222224,0,0,0.015190972222222224,20.90277777777778,0)" xlink:href="#u"/><use transform="matrix(0.015190972222222224,0,0,0.015190972222222224,39.28385416666667,0)" xlink:href="#p"/><use transform="matrix(0.015190972222222224,0,0,0.015190972222222224,57.37630208333334,0)" xlink:href="#z"/><use transform="matrix(0.015190972222222224,0,0,0.015190972222222224,82.83637152777779,0)" xlink:href="#o"/><use transform="matrix(0.015190972222222224,0,0,0.015190972222222224,90.37109375000001,0)" xlink:href="#w"/><use transform="matrix(0.015190972222222224,0,0,0.015190972222222224,108.50911458333334,0)" xlink:href="#A"/><use transform="matrix(0.015190972222222224,0,0,0.015190972222222224,127.55859375000001,0)" xlink:href="#B"/><use transform="matrix(0.015190972222222224,0,0,0.015190972222222224,146.63845486111114,0)" xlink:href="#w"/></g><path d="M783 20c-382 0-661-292-661-764 0-473 279-766 661-766 302 0 548 182 601 489h-190c-42-204-217-313-411-313-268 0-476 208-476 590 0 381 209 588 476 588 195 0 369-110 411-313h190c-52 303-296 489-601 489" id="C"/><path d="M538 24C308 24 148-78 108-271l171-41c32 123 123 178 257 178 156 0 256-77 256-169 0-77-54-128-164-154l-186-44c-203-48-300-148-300-305 0-192 176-326 414-326 230 0 351 112 402 269l-163 42c-31-80-94-158-238-158-133 0-233 69-233 162 0 83 57 129 188 160l169 40c203 48 298 149 298 302 0 196-179 339-441 339" id="D"/><g id="d"><use transform="matrix(0.015190972222222224,0,0,0.015190972222222224,0,0)" xlink:href="#C"/><use transform="matrix(0.015190972222222224,0,0,0.015190972222222224,22.725694444444446,0)" xlink:href="#p"/><use transform="matrix(0.015190972222222224,0,0,0.015190972222222224,41.380208333333336,0)" xlink:href="#u"/><use transform="matrix(0.015190972222222224,0,0,0.015190972222222224,59.76128472222223,0)" xlink:href="#D"/><use transform="matrix(0.015190972222222224,0,0,0.015190972222222224,76.18272569444446,0)" xlink:href="#p"/><use transform="matrix(0.015190972222222224,0,0,0.015190972222222224,94.83723958333334,0)" xlink:href="#o"/><use transform="matrix(0.015190972222222224,0,0,0.015190972222222224,102.37196180555557,0)" xlink:href="#t"/><use transform="matrix(0.015190972222222224,0,0,0.015190972222222224,109.9066840277778,0)" xlink:href="#A"/><use transform="matrix(0.015190972222222224,0,0,0.015190972222222224,128.95616319444446,0)" xlink:href="#r"/><use transform="matrix(0.015190972222222224,0,0,0.015190972222222224,146.42578125,0)" xlink:href="#s"/><use transform="matrix(0.015190972222222224,0,0,0.015190972222222224,156.60373263888889,0)" xlink:href="#t"/><use transform="matrix(0.015190972222222224,0,0,0.015190972222222224,164.13845486111111,0)" xlink:href="#p"/><use transform="matrix(0.015190972222222224,0,0,0.015190972222222224,182.79296875,0)" xlink:href="#u"/></g><path d="M798-719v166H144v-166h654" id="E"/><path d="M180 0v-1490h224l606 953c40 63 108 177 176 312-27-437-7-821-13-1265h190V0h-226C860-448 622-778 356-1262c27 476 11 792 15 1262H180" id="F"/><g id="e"><use transform="matrix(0.01193576388888889,0,0,0.01193576388888889,0,0)" xlink:href="#C"/><use transform="matrix(0.01193576388888889,0,0,0.01193576388888889,17.85590277777778,0)" xlink:href="#E"/><use transform="matrix(0.01193576388888889,0,0,0.01193576388888889,29.099392361111114,0)" xlink:href="#F"/><use transform="matrix(0.01193576388888889,0,0,0.01193576388888889,47.51627604166667,0)" xlink:href="#p"/><use transform="matrix(0.01193576388888889,0,0,0.01193576388888889,62.17339409722223,0)" xlink:href="#A"/><use transform="matrix(0.01193576388888889,0,0,0.01193576388888889,77.1408420138889,0)" xlink:href="#w"/></g><path d="M1067 8C899 8 817-86 817-248v-717H402V0H222v-965H41v-153h1153v153H997v672c0 104 18 141 93 141 39 0 55-3 72-8l36 151c-29 8-78 17-131 17" id="G"/><g id="f"><use transform="matrix(0.015190972222222224,0,0,0.015190972222222224,0,0)" xlink:href="#G"/><use transform="matrix(0.010633680555555556,0,0,0.010633680555555556,18.821614583333336,5.274305555555555)" xlink:href="#w"/><use transform="matrix(0.010633680555555556,0,0,0.010633680555555556,31.02907986111111,5.274305555555555)" xlink:href="#m"/><use transform="matrix(0.010633680555555556,0,0,0.010633680555555556,42.91753472222223,5.274305555555555)" xlink:href="#n"/></g><g id="g"><use transform="matrix(0.015190972222222224,0,0,0.015190972222222224,0,0)" xlink:href="#G"/><use transform="matrix(0.010633680555555556,0,0,0.010633680555555556,18.821614583333336,5.274305555555555)" xlink:href="#w"/><use transform="matrix(0.010633680555555556,0,0,0.010633680555555556,31.51822916666667,5.274305555555555)" xlink:href="#v"/><use transform="matrix(0.010633680555555556,0,0,0.010633680555555556,38.72786458333334,5.274305555555555)" xlink:href="#v"/></g><path d="M158 0v-1490h180v865h22l478-493h223L593-638 1096 0H865L456-523 338-412V0H158" id="H"/><g id="h"><use transform="matrix(0.015190972222222224,0,0,0.015190972222222224,0,0)" xlink:href="#G"/><use transform="matrix(0.010633680555555556,0,0,0.010633680555555556,18.821614583333336,5.274305555555555)" xlink:href="#H"/><use transform="matrix(0.010633680555555556,0,0,0.010633680555555556,30.284722222222225,5.274305555555555)" xlink:href="#x"/></g><path d="M180 0v-1490h510c348 0 508 209 508 474 0 266-160 477-507 477H370V0H180zm190-706h312c236 0 327-133 327-310 0-176-91-307-329-307H370v617" id="I"/><g id="i"><use transform="matrix(0.01193576388888889,0,0,0.01193576388888889,0,0)" xlink:href="#I"/><use transform="matrix(0.01193576388888889,0,0,0.01193576388888889,14.501953125000002,0)" xlink:href="#E"/><use transform="matrix(0.01193576388888889,0,0,0.01193576388888889,25.745442708333336,0)" xlink:href="#F"/><use transform="matrix(0.01193576388888889,0,0,0.01193576388888889,44.16232638888889,0)" xlink:href="#p"/><use transform="matrix(0.01193576388888889,0,0,0.01193576388888889,58.81944444444445,0)" xlink:href="#A"/><use transform="matrix(0.01193576388888889,0,0,0.01193576388888889,73.78689236111111,0)" xlink:href="#w"/></g><path d="M458 0L52-1490h194c108 439 233 855 324 1313 92-459 221-873 331-1313h216c110 438 234 854 330 1307 92-455 216-869 323-1307h196L1558 0h-221l-256-944c-26-95-50-200-73-331-22 122-44 223-73 331L680 0H458" id="J"/><path d="M180 0v-1490h270l367 940c28 72 75 218 110 339 35-117 81-264 110-339l362-940h271V0h-187c2-448-5-837 7-1287-157 497-311 829-483 1287H842C666-458 514-784 354-1284c12 438 5 843 7 1284H180" id="K"/><g id="j"><use transform="matrix(0.01193576388888889,0,0,0.01193576388888889,0,0)" xlink:href="#J"/><use transform="matrix(0.01193576388888889,0,0,0.01193576388888889,24.08637152777778,0)" xlink:href="#K"/></g><path d="M789 20c-398 0-667-293-667-764 0-473 273-766 655-766 315 0 558 198 612 487h-196c-61-191-204-311-415-311-262 0-471 207-471 590 0 380 208 588 482 588 249 0 420-165 425-427H828v-166h572v163c0 370-256 606-611 606" id="L"/><g id="k"><use transform="matrix(0.01193576388888889,0,0,0.01193576388888889,0,0)" xlink:href="#L"/><use transform="matrix(0.01193576388888889,0,0,0.01193576388888889,18.237847222222225,0)" xlink:href="#p"/><use transform="matrix(0.01193576388888889,0,0,0.01193576388888889,33.13368055555556,0)" xlink:href="#r"/><use transform="matrix(0.01193576388888889,0,0,0.01193576388888889,46.85980902777778,0)" xlink:href="#o"/></g></defs></g></svg>